<svg width="28" height="28" viewBox="0 0 28 28" fill="none" xmlns="http://www.w3.org/2000/svg">
<path fill-rule="evenodd" clip-rule="evenodd" d="M6.20134 15.5302L11 26H6H3V25.4631C3 23.838 3.33009 22.2298 3.97026 20.7361L6.20134 15.5302ZM21.7987 15.5302L17 26H22H25L25 25.4631C25 23.838 24.6699 22.2298 24.0297 20.736L21.7987 15.5302Z" fill="#37437D"/>
<path fill-rule="evenodd" clip-rule="evenodd" d="M11.3762 24.5444C11.8883 23.6233 12.8714 23 14 23C15.1287 23 16.1117 23.6233 16.6238 24.5444L24.0297 7.26394C24.6699 5.77022 25 4.16203 25 2.53691V2H17C17 3.65686 15.6569 5 14 5C12.3431 5 11 3.65685 11 2H3V2.53691C3 4.16203 3.33009 5.77022 3.97026 7.26394L11.3762 24.5444Z" fill="#F26CF9"/>
</svg>
