<svg width="36" height="36" viewBox="0 0 36 36" fill="none" xmlns="http://www.w3.org/2000/svg">
<path d="M27 18C27 18.1989 26.921 18.3897 26.7803 18.5303C26.6397 18.671 26.4489 18.75 26.25 18.75H9.75C9.55109 18.75 9.36032 18.671 9.21967 18.5303C9.07902 18.3897 9 18.1989 9 18C9 17.8011 9.07902 17.6103 9.21967 17.4697C9.36032 17.329 9.55109 17.25 9.75 17.25H26.25C26.4489 17.25 26.6397 17.329 26.7803 17.4697C26.921 17.6103 27 17.8011 27 18ZM9.75 12.75H26.25C26.4489 12.75 26.6397 12.671 26.7803 12.5303C26.921 12.3897 27 12.1989 27 12C27 11.8011 26.921 11.6103 26.7803 11.4697C26.6397 11.329 26.4489 11.25 26.25 11.25H9.75C9.55109 11.25 9.36032 11.329 9.21967 11.4697C9.07902 11.6103 9 11.8011 9 12C9 12.1989 9.07902 12.3897 9.21967 12.5303C9.36032 12.671 9.55109 12.75 9.75 12.75ZM26.25 23.25H9.75C9.55109 23.25 9.36032 23.329 9.21967 23.4697C9.07902 23.6103 9 23.8011 9 24C9 24.1989 9.07902 24.3897 9.21967 24.5303C9.36032 24.671 9.55109 24.75 9.75 24.75H26.25C26.4489 24.75 26.6397 24.671 26.7803 24.5303C26.921 24.3897 27 24.1989 27 24C27 23.8011 26.921 23.6103 26.7803 23.4697C26.6397 23.329 26.4489 23.25 26.25 23.25Z" fill="#1E1E20"/>
</svg>
